<svg width="24" height="24" viewBox="0 0 24 24" fill="none" xmlns="http://www.w3.org/2000/svg">
<path d="M3.46447 20.5355C4.92893 22 7.28595 22 12 22C16.714 22 19.0711 22 20.5355 20.5355C22 19.0711 22 16.714 22 12C22 7.28595 22 4.92893 20.5355 3.46447C19.0711 2 16.714 2 12 2C7.28595 2 4.92893 2 3.46447 3.46447C2 4.92893 2 7.28595 2 12C2 16.714 2 19.0711 3.46447 20.5355Z" stroke="#EDE9E9" stroke-width="1.5"/>
<path d="M18 8.49995H14M18 14.4999H14M18 17.4999H14M10 8.49996H8M8 8.49996L6 8.49996M8 8.49996L8 6.49995M8 8.49996L8 10.4999M9.5 14.5L8.00001 16M8.00001 16L6.50001 17.5M8.00001 16L6.5 14.5M8.00001 16L9.49999 17.5" stroke="#EDE9E9" stroke-width="1.5" stroke-linecap="round"/>
</svg>
